<mxfile host="Electron" agent="Mozilla/5.0 (Macintosh; Intel Mac OS X 10_15_7) AppleWebKit/537.36 (KHTML, like Gecko) draw.io/26.0.16 Chrome/132.0.6834.196 Electron/34.2.0 Safari/537.36" version="26.0.16">
  <diagram name="Страница — 1" id="5H-hBNvwUbpA375HUfUg">
    <mxGraphModel dx="556" dy="326" grid="1" gridSize="10" guides="1" tooltips="1" connect="1" arrows="1" fold="1" page="1" pageScale="1" pageWidth="827" pageHeight="1169" math="0" shadow="0">
      <root>
        <mxCell id="0" />
        <mxCell id="1" parent="0" />
        <mxCell id="QS6wYorZDuto70AmAxFD-2" value="&lt;font style=&quot;font-size: 24px;&quot;&gt;Текущие диаграммы потоков данных&lt;/font&gt;" style="text;html=1;align=center;verticalAlign=middle;whiteSpace=wrap;rounded=0;" parent="1" vertex="1">
          <mxGeometry x="10" y="10" width="450" height="30" as="geometry" />
        </mxCell>
        <mxCell id="mwo5x5l21UHLlRWF8Dnc-3" value="Данные из хранилища" style="edgeStyle=orthogonalEdgeStyle;rounded=0;orthogonalLoop=1;jettySize=auto;html=1;exitX=1;exitY=0;exitDx=0;exitDy=52.5;exitPerimeter=0;entryX=0;entryY=0.75;entryDx=0;entryDy=0;" edge="1" parent="1" source="QS6wYorZDuto70AmAxFD-5" target="QS6wYorZDuto70AmAxFD-27">
          <mxGeometry x="-0.191" y="-38" relative="1" as="geometry">
            <Array as="points">
              <mxPoint x="1000" y="637" />
              <mxPoint x="1000" y="595" />
            </Array>
            <mxPoint x="-18" y="33" as="offset" />
          </mxGeometry>
        </mxCell>
        <mxCell id="QS6wYorZDuto70AmAxFD-5" value="Локальное хранилище данных" style="shape=cylinder3;whiteSpace=wrap;html=1;boundedLbl=1;backgroundOutline=1;size=15;" parent="1" vertex="1">
          <mxGeometry x="810" y="585" width="100" height="80" as="geometry" />
        </mxCell>
        <mxCell id="QS6wYorZDuto70AmAxFD-22" value="Сотрудник склада" style="rounded=0;whiteSpace=wrap;html=1;" parent="1" vertex="1">
          <mxGeometry x="20" y="425" width="120" height="60" as="geometry" />
        </mxCell>
        <mxCell id="QS6wYorZDuto70AmAxFD-92" style="edgeStyle=orthogonalEdgeStyle;rounded=0;orthogonalLoop=1;jettySize=auto;html=1;exitX=1;exitY=0.5;exitDx=0;exitDy=0;entryX=0;entryY=0.5;entryDx=0;entryDy=0;" parent="1" source="q35OqRyjjlaC8kFbtdeE-2" target="QS6wYorZDuto70AmAxFD-91" edge="1">
          <mxGeometry relative="1" as="geometry">
            <mxPoint x="290" y="625" as="sourcePoint" />
          </mxGeometry>
        </mxCell>
        <mxCell id="QS6wYorZDuto70AmAxFD-94" value="Результаты анализов" style="edgeLabel;html=1;align=center;verticalAlign=middle;resizable=0;points=[];" parent="QS6wYorZDuto70AmAxFD-92" vertex="1" connectable="0">
          <mxGeometry x="0.2975" y="5" relative="1" as="geometry">
            <mxPoint x="-26" y="-10" as="offset" />
          </mxGeometry>
        </mxCell>
        <mxCell id="QS6wYorZDuto70AmAxFD-24" value="1C Торговля и склад" style="shape=cylinder3;whiteSpace=wrap;html=1;boundedLbl=1;backgroundOutline=1;size=15;" parent="1" vertex="1">
          <mxGeometry x="770" y="415" width="100" height="80" as="geometry" />
        </mxCell>
        <mxCell id="QS6wYorZDuto70AmAxFD-25" style="edgeStyle=orthogonalEdgeStyle;rounded=0;orthogonalLoop=1;jettySize=auto;html=1;exitX=1;exitY=0.5;exitDx=0;exitDy=0;entryX=0;entryY=0.5;entryDx=0;entryDy=0;" parent="1" source="QS6wYorZDuto70AmAxFD-22" target="QS6wYorZDuto70AmAxFD-86" edge="1">
          <mxGeometry relative="1" as="geometry" />
        </mxCell>
        <mxCell id="QS6wYorZDuto70AmAxFD-89" value="Список изменений" style="edgeLabel;html=1;align=center;verticalAlign=middle;resizable=0;points=[];" parent="QS6wYorZDuto70AmAxFD-25" vertex="1" connectable="0">
          <mxGeometry x="0.2129" y="-1" relative="1" as="geometry">
            <mxPoint x="-21" y="-13" as="offset" />
          </mxGeometry>
        </mxCell>
        <mxCell id="QS6wYorZDuto70AmAxFD-27" value="Медицинские специалисты" style="rounded=0;whiteSpace=wrap;html=1;" parent="1" vertex="1">
          <mxGeometry x="1090" y="550" width="120" height="60" as="geometry" />
        </mxCell>
        <mxCell id="QS6wYorZDuto70AmAxFD-28" style="edgeStyle=orthogonalEdgeStyle;rounded=0;orthogonalLoop=1;jettySize=auto;html=1;exitX=0;exitY=0.5;exitDx=0;exitDy=0;entryX=1;entryY=0.5;entryDx=0;entryDy=0;entryPerimeter=0;" parent="1" source="QS6wYorZDuto70AmAxFD-27" target="QS6wYorZDuto70AmAxFD-5" edge="1">
          <mxGeometry relative="1" as="geometry">
            <Array as="points">
              <mxPoint x="980" y="580" />
              <mxPoint x="980" y="625" />
            </Array>
          </mxGeometry>
        </mxCell>
        <mxCell id="QS6wYorZDuto70AmAxFD-82" value="Запрос к хранилищу" style="edgeLabel;html=1;align=center;verticalAlign=middle;resizable=0;points=[];" parent="QS6wYorZDuto70AmAxFD-28" vertex="1" connectable="0">
          <mxGeometry x="-0.1103" y="-5" relative="1" as="geometry">
            <mxPoint x="-15" y="-10" as="offset" />
          </mxGeometry>
        </mxCell>
        <mxCell id="QS6wYorZDuto70AmAxFD-33" value="Обработка данных о пациенте" style="text;html=1;align=center;verticalAlign=middle;whiteSpace=wrap;rounded=0;" parent="1" vertex="1">
          <mxGeometry x="20" y="70" width="200" height="30" as="geometry" />
        </mxCell>
        <mxCell id="QS6wYorZDuto70AmAxFD-34" style="edgeStyle=orthogonalEdgeStyle;rounded=0;orthogonalLoop=1;jettySize=auto;html=1;exitX=1;exitY=0.5;exitDx=0;exitDy=0;entryX=0;entryY=0.5;entryDx=0;entryDy=0;" parent="1" source="QS6wYorZDuto70AmAxFD-38" target="QS6wYorZDuto70AmAxFD-39" edge="1">
          <mxGeometry relative="1" as="geometry" />
        </mxCell>
        <mxCell id="QS6wYorZDuto70AmAxFD-35" value="Запрос на регистрацию пациента" style="edgeLabel;html=1;align=center;verticalAlign=middle;resizable=0;points=[];" parent="QS6wYorZDuto70AmAxFD-34" vertex="1" connectable="0">
          <mxGeometry x="-0.1733" y="2" relative="1" as="geometry">
            <mxPoint x="6" y="-13" as="offset" />
          </mxGeometry>
        </mxCell>
        <mxCell id="QS6wYorZDuto70AmAxFD-38" value="Пациент" style="rounded=0;whiteSpace=wrap;html=1;" parent="1" vertex="1">
          <mxGeometry x="20" y="160" width="120" height="60" as="geometry" />
        </mxCell>
        <mxCell id="QS6wYorZDuto70AmAxFD-39" value="Ручная обработка данных пациента" style="rounded=1;whiteSpace=wrap;html=1;" parent="1" vertex="1">
          <mxGeometry x="370" y="160" width="120" height="60" as="geometry" />
        </mxCell>
        <mxCell id="mwo5x5l21UHLlRWF8Dnc-1" style="edgeStyle=orthogonalEdgeStyle;rounded=0;orthogonalLoop=1;jettySize=auto;html=1;exitX=1;exitY=0;exitDx=0;exitDy=52.5;exitPerimeter=0;entryX=0;entryY=0.75;entryDx=0;entryDy=0;" edge="1" parent="1" source="QS6wYorZDuto70AmAxFD-40" target="QS6wYorZDuto70AmAxFD-55">
          <mxGeometry relative="1" as="geometry" />
        </mxCell>
        <mxCell id="mwo5x5l21UHLlRWF8Dnc-2" value="Данные из хранилища" style="edgeLabel;html=1;align=center;verticalAlign=middle;resizable=0;points=[];" vertex="1" connectable="0" parent="mwo5x5l21UHLlRWF8Dnc-1">
          <mxGeometry x="0.4292" relative="1" as="geometry">
            <mxPoint x="-15" y="55" as="offset" />
          </mxGeometry>
        </mxCell>
        <mxCell id="QS6wYorZDuto70AmAxFD-40" value="Локальное хранилище данных" style="shape=cylinder3;whiteSpace=wrap;html=1;boundedLbl=1;backgroundOutline=1;size=15;" parent="1" vertex="1">
          <mxGeometry x="740" y="150" width="100" height="80" as="geometry" />
        </mxCell>
        <mxCell id="QS6wYorZDuto70AmAxFD-41" style="edgeStyle=orthogonalEdgeStyle;rounded=0;orthogonalLoop=1;jettySize=auto;html=1;exitX=1;exitY=0.5;exitDx=0;exitDy=0;entryX=0;entryY=0.5;entryDx=0;entryDy=0;entryPerimeter=0;" parent="1" source="QS6wYorZDuto70AmAxFD-39" target="QS6wYorZDuto70AmAxFD-40" edge="1">
          <mxGeometry relative="1" as="geometry" />
        </mxCell>
        <mxCell id="QS6wYorZDuto70AmAxFD-42" value="Excel-таблицы и файлы других форматов" style="edgeLabel;html=1;align=center;verticalAlign=middle;resizable=0;points=[];" parent="QS6wYorZDuto70AmAxFD-41" vertex="1" connectable="0">
          <mxGeometry x="0.1571" y="-2" relative="1" as="geometry">
            <mxPoint x="-12" y="-17" as="offset" />
          </mxGeometry>
        </mxCell>
        <mxCell id="QS6wYorZDuto70AmAxFD-55" value="Медицинские специалисты" style="rounded=0;whiteSpace=wrap;html=1;" parent="1" vertex="1">
          <mxGeometry x="1020" y="110" width="120" height="60" as="geometry" />
        </mxCell>
        <mxCell id="QS6wYorZDuto70AmAxFD-56" style="edgeStyle=orthogonalEdgeStyle;rounded=0;orthogonalLoop=1;jettySize=auto;html=1;exitX=0;exitY=0.5;exitDx=0;exitDy=0;entryX=1;entryY=0.5;entryDx=0;entryDy=0;entryPerimeter=0;" parent="1" source="QS6wYorZDuto70AmAxFD-55" target="QS6wYorZDuto70AmAxFD-40" edge="1">
          <mxGeometry relative="1" as="geometry">
            <Array as="points">
              <mxPoint x="900" y="140" />
              <mxPoint x="900" y="190" />
            </Array>
          </mxGeometry>
        </mxCell>
        <mxCell id="QS6wYorZDuto70AmAxFD-84" value="Запрос к хранилищу" style="edgeLabel;html=1;align=center;verticalAlign=middle;resizable=0;points=[];" parent="QS6wYorZDuto70AmAxFD-56" vertex="1" connectable="0">
          <mxGeometry x="-0.0694" y="1" relative="1" as="geometry">
            <mxPoint x="1" y="-21" as="offset" />
          </mxGeometry>
        </mxCell>
        <mxCell id="QS6wYorZDuto70AmAxFD-61" value="Проведение платежей" style="text;html=1;align=center;verticalAlign=middle;whiteSpace=wrap;rounded=0;" parent="1" vertex="1">
          <mxGeometry x="10" y="250" width="200" height="30" as="geometry" />
        </mxCell>
        <mxCell id="QS6wYorZDuto70AmAxFD-64" style="edgeStyle=orthogonalEdgeStyle;rounded=0;orthogonalLoop=1;jettySize=auto;html=1;exitX=1;exitY=0.5;exitDx=0;exitDy=0;entryX=0;entryY=0.5;entryDx=0;entryDy=0;" parent="1" source="QS6wYorZDuto70AmAxFD-66" target="QS6wYorZDuto70AmAxFD-71" edge="1">
          <mxGeometry relative="1" as="geometry" />
        </mxCell>
        <mxCell id="QS6wYorZDuto70AmAxFD-65" value="Данные платежа" style="edgeLabel;html=1;align=center;verticalAlign=middle;resizable=0;points=[];" parent="QS6wYorZDuto70AmAxFD-64" vertex="1" connectable="0">
          <mxGeometry x="-0.5286" relative="1" as="geometry">
            <mxPoint x="46" y="-20" as="offset" />
          </mxGeometry>
        </mxCell>
        <mxCell id="QS6wYorZDuto70AmAxFD-66" value="Пациент" style="rounded=0;whiteSpace=wrap;html=1;" parent="1" vertex="1">
          <mxGeometry x="20" y="300" width="120" height="60" as="geometry" />
        </mxCell>
        <mxCell id="QS6wYorZDuto70AmAxFD-69" value="1C Бухгалтерия предприятия" style="shape=cylinder3;whiteSpace=wrap;html=1;boundedLbl=1;backgroundOutline=1;size=15;" parent="1" vertex="1">
          <mxGeometry x="1320" y="290" width="100" height="80" as="geometry" />
        </mxCell>
        <mxCell id="QS6wYorZDuto70AmAxFD-70" style="edgeStyle=orthogonalEdgeStyle;rounded=0;orthogonalLoop=1;jettySize=auto;html=1;exitX=1;exitY=0.5;exitDx=0;exitDy=0;entryX=0;entryY=0.5;entryDx=0;entryDy=0;" parent="1" source="QS6wYorZDuto70AmAxFD-71" target="QS6wYorZDuto70AmAxFD-73" edge="1">
          <mxGeometry relative="1" as="geometry" />
        </mxCell>
        <mxCell id="QS6wYorZDuto70AmAxFD-83" value="Данные о платеже из кассы" style="edgeLabel;html=1;align=center;verticalAlign=middle;resizable=0;points=[];" parent="QS6wYorZDuto70AmAxFD-70" vertex="1" connectable="0">
          <mxGeometry x="0.2596" y="-1" relative="1" as="geometry">
            <mxPoint x="-24" y="-21" as="offset" />
          </mxGeometry>
        </mxCell>
        <mxCell id="QS6wYorZDuto70AmAxFD-71" value="Оплата за медицинские услуги" style="rounded=1;whiteSpace=wrap;html=1;" parent="1" vertex="1">
          <mxGeometry x="300" y="300" width="140" height="60" as="geometry" />
        </mxCell>
        <mxCell id="QS6wYorZDuto70AmAxFD-72" style="edgeStyle=orthogonalEdgeStyle;rounded=0;orthogonalLoop=1;jettySize=auto;html=1;exitX=1;exitY=0.5;exitDx=0;exitDy=0;entryX=0;entryY=0.5;entryDx=0;entryDy=0;" parent="1" source="QS6wYorZDuto70AmAxFD-73" target="QS6wYorZDuto70AmAxFD-74" edge="1">
          <mxGeometry relative="1" as="geometry" />
        </mxCell>
        <mxCell id="QS6wYorZDuto70AmAxFD-90" value="Информация о принятии денежных средств" style="edgeLabel;html=1;align=center;verticalAlign=middle;resizable=0;points=[];" parent="QS6wYorZDuto70AmAxFD-72" vertex="1" connectable="0">
          <mxGeometry x="0.1583" y="-2" relative="1" as="geometry">
            <mxPoint x="-16" y="-12" as="offset" />
          </mxGeometry>
        </mxCell>
        <mxCell id="QS6wYorZDuto70AmAxFD-73" value="Проведение платежа в контрольно-кассовой машине" style="rounded=1;whiteSpace=wrap;html=1;" parent="1" vertex="1">
          <mxGeometry x="600" y="300" width="120" height="60" as="geometry" />
        </mxCell>
        <mxCell id="QS6wYorZDuto70AmAxFD-74" value="Обработка платежа в 1С" style="rounded=1;whiteSpace=wrap;html=1;" parent="1" vertex="1">
          <mxGeometry x="990" y="300" width="120" height="60" as="geometry" />
        </mxCell>
        <mxCell id="QS6wYorZDuto70AmAxFD-75" value="Данные о платеже для хранилища" style="edgeStyle=orthogonalEdgeStyle;rounded=0;orthogonalLoop=1;jettySize=auto;html=1;exitX=1;exitY=0.5;exitDx=0;exitDy=0;entryX=0;entryY=0.5;entryDx=0;entryDy=0;entryPerimeter=0;" parent="1" source="QS6wYorZDuto70AmAxFD-74" target="QS6wYorZDuto70AmAxFD-69" edge="1">
          <mxGeometry relative="1" as="geometry" />
        </mxCell>
        <mxCell id="QS6wYorZDuto70AmAxFD-76" value="Обработка анализов" style="edgeLabel;html=1;align=center;verticalAlign=middle;resizable=0;points=[];" parent="1" vertex="1" connectable="0">
          <mxGeometry x="90" y="550" as="geometry">
            <mxPoint x="3" y="-4" as="offset" />
          </mxGeometry>
        </mxCell>
        <mxCell id="QS6wYorZDuto70AmAxFD-78" value="Бухгалтерия" style="rounded=0;whiteSpace=wrap;html=1;" parent="1" vertex="1">
          <mxGeometry x="1610" y="300" width="120" height="60" as="geometry" />
        </mxCell>
        <mxCell id="QS6wYorZDuto70AmAxFD-79" style="edgeStyle=orthogonalEdgeStyle;rounded=0;orthogonalLoop=1;jettySize=auto;html=1;exitX=0;exitY=0.5;exitDx=0;exitDy=0;entryX=1;entryY=0.5;entryDx=0;entryDy=0;entryPerimeter=0;" parent="1" source="QS6wYorZDuto70AmAxFD-78" target="QS6wYorZDuto70AmAxFD-69" edge="1">
          <mxGeometry relative="1" as="geometry">
            <mxPoint x="1270" y="450" as="sourcePoint" />
          </mxGeometry>
        </mxCell>
        <mxCell id="QS6wYorZDuto70AmAxFD-85" value="Процессинг платежей" style="edgeLabel;html=1;align=center;verticalAlign=middle;resizable=0;points=[];" parent="QS6wYorZDuto70AmAxFD-79" vertex="1" connectable="0">
          <mxGeometry x="-0.1597" y="4" relative="1" as="geometry">
            <mxPoint x="1" y="-14" as="offset" />
          </mxGeometry>
        </mxCell>
        <mxCell id="QS6wYorZDuto70AmAxFD-80" value="Учет ТМЦ" style="edgeLabel;html=1;align=center;verticalAlign=middle;resizable=0;points=[];" parent="1" vertex="1" connectable="0">
          <mxGeometry x="70" y="400" as="geometry">
            <mxPoint x="6" as="offset" />
          </mxGeometry>
        </mxCell>
        <mxCell id="QS6wYorZDuto70AmAxFD-86" value="&lt;span style=&quot;font-size: 11px; text-wrap-mode: nowrap; background-color: rgb(255, 255, 255);&quot;&gt;Редактирование информации о ТМЦ&lt;/span&gt;" style="rounded=1;whiteSpace=wrap;html=1;" parent="1" vertex="1">
          <mxGeometry x="330" y="422.5" width="217" height="65" as="geometry" />
        </mxCell>
        <mxCell id="QS6wYorZDuto70AmAxFD-87" style="edgeStyle=orthogonalEdgeStyle;rounded=0;orthogonalLoop=1;jettySize=auto;html=1;exitX=1;exitY=0.5;exitDx=0;exitDy=0;entryX=0;entryY=0.5;entryDx=0;entryDy=0;entryPerimeter=0;" parent="1" source="QS6wYorZDuto70AmAxFD-86" target="QS6wYorZDuto70AmAxFD-24" edge="1">
          <mxGeometry relative="1" as="geometry" />
        </mxCell>
        <mxCell id="QS6wYorZDuto70AmAxFD-88" value="Информация о текущих ТМЦ" style="edgeLabel;html=1;align=center;verticalAlign=middle;resizable=0;points=[];" parent="QS6wYorZDuto70AmAxFD-87" vertex="1" connectable="0">
          <mxGeometry x="0.2784" y="4" relative="1" as="geometry">
            <mxPoint x="-20" y="-11" as="offset" />
          </mxGeometry>
        </mxCell>
        <mxCell id="QS6wYorZDuto70AmAxFD-91" value="Ручная обработка анализов" style="rounded=1;whiteSpace=wrap;html=1;" parent="1" vertex="1">
          <mxGeometry x="503" y="595" width="120" height="60" as="geometry" />
        </mxCell>
        <mxCell id="QS6wYorZDuto70AmAxFD-95" style="edgeStyle=orthogonalEdgeStyle;rounded=0;orthogonalLoop=1;jettySize=auto;html=1;exitX=1;exitY=0.5;exitDx=0;exitDy=0;entryX=0;entryY=0.5;entryDx=0;entryDy=0;entryPerimeter=0;" parent="1" source="QS6wYorZDuto70AmAxFD-91" target="QS6wYorZDuto70AmAxFD-5" edge="1">
          <mxGeometry relative="1" as="geometry" />
        </mxCell>
        <mxCell id="QS6wYorZDuto70AmAxFD-96" value="Excel-таблицы с анализами" style="edgeLabel;html=1;align=center;verticalAlign=middle;resizable=0;points=[];" parent="QS6wYorZDuto70AmAxFD-95" vertex="1" connectable="0">
          <mxGeometry x="-0.0428" y="-4" relative="1" as="geometry">
            <mxPoint x="-1" y="-19" as="offset" />
          </mxGeometry>
        </mxCell>
        <mxCell id="q35OqRyjjlaC8kFbtdeE-3" style="edgeStyle=orthogonalEdgeStyle;rounded=0;orthogonalLoop=1;jettySize=auto;html=1;exitX=1;exitY=0.5;exitDx=0;exitDy=0;entryX=0;entryY=0.5;entryDx=0;entryDy=0;" parent="1" source="q35OqRyjjlaC8kFbtdeE-1" target="q35OqRyjjlaC8kFbtdeE-2" edge="1">
          <mxGeometry relative="1" as="geometry" />
        </mxCell>
        <mxCell id="q35OqRyjjlaC8kFbtdeE-4" value="Анализы пациента" style="edgeLabel;html=1;align=center;verticalAlign=middle;resizable=0;points=[];" parent="q35OqRyjjlaC8kFbtdeE-3" vertex="1" connectable="0">
          <mxGeometry x="-0.0909" y="2" relative="1" as="geometry">
            <mxPoint x="10" y="-13" as="offset" />
          </mxGeometry>
        </mxCell>
        <mxCell id="q35OqRyjjlaC8kFbtdeE-1" value="Пациент" style="rounded=0;whiteSpace=wrap;html=1;" parent="1" vertex="1">
          <mxGeometry x="20" y="595" width="120" height="60" as="geometry" />
        </mxCell>
        <mxCell id="q35OqRyjjlaC8kFbtdeE-2" value="Обработка анализов в лаборатории" style="rounded=1;whiteSpace=wrap;html=1;" parent="1" vertex="1">
          <mxGeometry x="250" y="595" width="120" height="60" as="geometry" />
        </mxCell>
      </root>
    </mxGraphModel>
  </diagram>
</mxfile>
